<?xml version="1.0" encoding="UTF-8"?>
<svg width="214px" height="77px" viewBox="0 0 214 77" version="1.1" xmlns="http://www.w3.org/2000/svg" xmlns:xlink="http://www.w3.org/1999/xlink">
    <!-- Generator: Sketch 52.2 (67145) - http://www.bohemiancoding.com/sketch -->
    <title>App Store Badge US Black</title>
    <desc>Created with Sketch.</desc>
    <g id="Welcome" stroke="none" stroke-width="1" fill="none" fill-rule="evenodd">
        <g id="Desktop" transform="translate(-367.000000, -839.000000)" fill-rule="nonzero">
            <g id="Group-12">
                <g id="Content" transform="translate(111.000000, 301.000000)">
                    <g id="Store_Link" transform="translate(0.000000, 539.000000)">
                        <g id="App-Store-Badge-US-Black" transform="translate(257.000000, 0.000000)">
                            <path d="M13.6130618,74.9960786 C13.0652903,74.9960786 12.5307509,74.988432 11.9872762,74.9750993 C10.8614244,74.9591016 9.73820398,74.8522137 8.6268268,74.6553121 C7.59052366,74.4606717 6.58662447,74.0986049 5.64824252,73.5810546 C4.71846502,73.0677925 3.8704332,72.3947889 3.13663403,71.5878255 C2.39221328,70.7903677 1.772449,69.8654527 1.30190134,68.8497333 C0.826168639,67.8274126 0.496933301,66.731608 0.325664109,65.6004915 C0.140708251,64.385094 0.0406394677,63.1561355 0.0263206501,61.9242131 C0.0149222265,61.5107053 0,60.1339146 0,60.1339146 L0,14.8410671 C0,14.8410671 0.0158930702,13.4854321 0.026410543,13.0871588 C0.0401207012,11.857188 0.139607583,10.6301365 0.32401008,9.41662527 C0.495595411,8.28241023 0.82508563,7.1834457 1.30107432,6.15777606 C1.76989261,5.14275825 2.38621608,4.21715262 3.12615252,3.41684095 C3.86525728,2.60892519 4.71600179,1.93245605 5.64736157,1.41210264 C6.58358685,0.896215106 7.58558879,0.536702418 8.61979717,0.34560938 C9.73482429,0.146729854 10.8619441,0.0392059585 11.991699,0.0239399247 L13.6139428,0 L198.377266,0 L200.01889,0.0249006588 C201.138369,0.039408131 202.25525,0.145972771 203.360031,0.343687912 C204.404709,0.537177928 205.417153,0.899199128 206.364073,1.41784743 C208.229924,2.46651034 209.748131,4.12559399 210.705901,6.16256013 C211.174293,7.18114915 211.498701,8.2711494 211.668115,9.39556755 C211.854714,10.6190357 211.959147,11.8557298 211.980583,13.0957858 C211.985797,13.6510509 211.985797,14.2474903 211.985797,14.8410671 C212,15.5763228 212,16.276149 212,16.9817199 L212,58.0161822 C212,58.7284979 212,59.4235596 211.985797,60.1243072 C211.985797,60.7619209 211.985797,61.3460081 211.978785,61.9471531 C211.957813,63.1650809 211.855121,64.3797009 211.671531,65.5812768 C211.503773,66.7205528 211.17633,67.8249107 210.700688,68.8556154 C210.226814,69.8603102 209.610608,70.7772133 208.874782,71.5725322 C208.140323,72.3838322 207.290795,73.0607734 206.358859,73.5773293 C205.414563,74.0988583 204.403608,74.462264 203.360031,74.6553121 C202.248738,74.8532645 201.125409,74.9601593 199.999474,74.9750993 C199.472881,74.988432 198.921478,74.9960786 198.386075,74.9960786 L196.437196,75 L13.6130618,74.9960786 Z" id="Background-Black" stroke="#979797" fill="#000000"></path>
                            <path d="M74.1635653,50.66793 L65.6503183,50.66793 L63.6058729,57.2077367 L60,57.2077367 L68.06361,33.0121375 L71.8099854,33.0121375 L79.8735954,57.2077367 L76.2062302,57.2077367 L74.1635653,50.66793 Z M66.5320205,47.6501438 L73.2801725,47.6501438 L69.9535602,37.0365215 L69.8604673,37.0365215 L66.5320205,47.6501438 Z M97.288252,48.3884232 C97.288252,53.870291 94.5798905,57.3922919 90.4927622,57.3922919 C88.3801612,57.5120124 86.3902066,56.3132724 85.3693645,54.3059794 L85.2920269,54.3059794 L85.2920269,63.0434783 L81.9496054,63.0434783 L81.9496054,39.5672003 L85.1849414,39.5672003 L85.1849414,42.5012626 L85.2464157,42.5012626 C86.3126099,40.5065537 88.3047103,39.3083297 90.4312878,39.3826256 C94.5640093,39.3826451 97.288252,42.9217727 97.288252,48.3884232 Z M93.8527376,48.3884232 C93.8527376,44.8169517 92.149027,42.4689187 89.5495676,42.4689187 C86.9957734,42.4689187 85.2780162,44.8664029 85.2780162,48.3884232 C85.2780162,51.9427875 86.9957734,54.3231451 89.5495676,54.3231451 C92.149045,54.3231451 93.8527376,51.9922582 93.8527376,48.3884232 Z M115.210495,48.3884232 C115.210495,53.870291 112.502133,57.3922919 108.415005,57.3922919 C106.302404,57.5120124 104.312449,56.3132724 103.291607,54.3059794 L103.21427,54.3059794 L103.21427,63.0434783 L99.8718481,63.0434783 L99.8718481,39.5672003 L103.107112,39.5672003 L103.107112,42.5012626 L103.168587,42.5012626 C104.234789,40.5065549 106.226897,39.308338 108.353477,39.3826451 C112.486324,39.3826451 115.210495,42.9217727 115.210495,48.3884232 Z M111.77498,48.3884232 C111.77498,44.8169517 110.07127,42.4689187 107.47181,42.4689187 C104.918016,42.4689187 103.200259,44.8664029 103.200259,48.3884232 C103.200259,51.9427875 104.918016,54.3231451 107.47181,54.3231451 C110.071288,54.3231451 111.774998,51.9922582 111.774998,48.3884232 L111.77498,48.3884232 Z M127.055624,50.4662286 C127.303284,52.8656223 129.454887,54.441025 132.395063,54.441025 C135.212327,54.441025 137.2392,52.8655443 137.2392,50.702086 C137.2392,48.8240531 136.016745,47.6995559 133.122216,46.928913 L130.227687,46.1735069 C126.126512,45.1003508 124.222569,43.022526 124.222569,39.6508269 C124.222569,35.4761606 127.5808,32.6086957 132.349398,32.6086957 C137.068788,32.6086957 140.304106,35.4761606 140.413008,39.6508269 L137.038932,39.6508269 C136.836955,37.236216 134.994486,35.7787127 132.301934,35.7787127 C129.609382,35.7787127 127.766931,37.2533622 127.766931,39.3996744 C127.766931,41.1102592 128.943721,42.1168179 131.822441,42.8873634 L134.283143,43.5419188 C138.865573,44.7159256 140.769516,46.7100654 140.769516,50.249154 C140.769516,54.7758237 137.441141,57.6109447 132.147367,57.6109447 C127.194328,57.6109447 123.850162,54.842421 123.63412,50.4660532 L127.055624,50.4662286 Z M147.98306,35.392534 L147.98306,39.5672003 L151.079584,39.5672003 L151.079584,42.4346653 L147.98306,42.4346653 L147.98306,52.1596867 C147.98306,53.6704796 148.603074,54.3745057 149.964269,54.3745057 C150.331877,54.3675614 150.69889,54.3395949 151.063775,54.2907232 L151.063775,57.1410614 C150.45178,57.2649417 149.829739,57.3210466 149.20726,57.3085094 C145.910522,57.3085094 144.62483,55.9670546 144.62483,52.545885 L144.62483,42.4346653 L142.257221,42.4346653 L142.257221,39.5672003 L144.624794,39.5672003 L144.624794,35.392534 L147.98306,35.392534 Z M152.872935,48.3884232 C152.872935,42.8380681 155.890412,39.3503011 160.59581,39.3503011 C165.316998,39.3503011 168.320429,42.8379902 168.320429,48.3884232 C168.320429,53.9540151 165.332807,57.4265453 160.59581,57.4265453 C155.860485,57.4265453 152.872935,53.9539956 152.872935,48.3884232 Z M164.914771,48.3884232 C164.914771,44.5809969 163.304153,42.333834 160.595792,42.333834 C157.88743,42.333834 156.278575,44.5981236 156.278575,48.3884232 C156.278575,52.2110668 157.88743,54.4411225 160.595792,54.4411225 C163.304153,54.4411225 164.914699,52.2110668 164.914699,48.3884232 L164.914771,48.3884232 Z M171.076147,39.5672003 L174.264001,39.5672003 L174.264001,42.5697304 L174.341338,42.5697304 C174.785896,40.6368656 176.420698,39.3066009 178.25809,39.3826061 C178.643275,39.3811491 179.027396,39.4264667 179.403262,39.5177102 L179.403262,42.9046265 C178.91699,42.7436537 178.409725,42.6697458 177.901474,42.6858178 C176.918834,42.6426318 175.967857,43.0668814 175.298241,43.8471715 C174.628624,44.6274615 174.307268,45.6858359 174.41855,46.7443968 L174.41855,57.2076977 L171.076129,57.2076977 L171.076147,39.5672003 Z M194.813814,52.0264921 C194.364177,55.2288336 191.485439,57.4265258 187.802283,57.4265258 C183.065285,57.4265258 180.125091,53.9882295 180.125091,48.4721278 C180.125091,42.9388994 183.081095,39.3502817 187.66178,39.3502817 C192.166927,39.3502817 195,42.7029445 195,48.0516177 L195,49.2922218 L183.499131,49.2922218 L183.499131,49.5110304 C183.391753,50.8243336 183.810355,52.1243216 184.648457,53.0803196 C185.486559,54.0363175 186.663384,54.5561836 187.879585,54.5076808 C189.501591,54.6723224 191.030826,53.6633048 191.640025,52.0264726 L194.813814,52.0264921 Z M183.514909,46.7615624 L191.655816,46.7615429 C191.716473,45.5814522 191.319949,44.4274472 190.561777,43.5775586 C189.803606,42.7276701 188.752529,42.2589567 187.66178,42.2843439 C186.562403,42.2772365 185.505952,42.7461697 184.727243,43.5869144 C183.948535,44.4276591 183.512092,45.5705515 183.514909,46.7615624 Z" id="App-Store" fill="#FFFFFF"></path>
                            <path d="M65.8651702,14.7335389 C67.2800336,14.6173987 68.665861,15.2331459 69.6412127,16.4113004 C70.6165645,17.5894548 71.0786331,19.2058325 70.9002372,20.8155363 C70.9002372,24.7259691 69.0525946,26.9737628 65.8651702,26.9737628 L62,26.9737628 L62,14.7335389 L65.8651702,14.7335389 Z M63.6619943,25.2427309 L65.6795218,25.2427309 C66.6906562,25.3118663 67.6751999,24.8561678 68.3597819,24.0021658 C69.0443639,23.1481637 69.3561017,21.9867777 69.2084373,20.840481 C69.3453584,19.6989414 69.0291313,18.5471391 68.3462467,17.7001014 C67.663362,16.8530637 66.6852828,16.3994321 65.6795218,16.4632785 L63.6619943,16.4632785 L63.6619943,25.2427309 Z M72.7776497,22.3509902 C72.6391794,20.6952951 73.3332385,19.0929395 74.5687405,18.215947 C75.8042425,17.3389545 77.3675727,17.3389545 78.6030748,18.215947 C79.8385768,19.0929395 80.5326359,20.6952951 80.3941656,22.3509902 C80.5352704,24.0084645 79.8418448,25.6139279 78.6052474,26.4928084 C77.3686499,27.3716889 75.8031654,27.3716889 74.5665679,26.4928084 C73.3299704,25.6139279 72.6365448,24.0084645 72.7776497,22.3509902 Z M78.7549111,22.3509902 C78.7549111,20.348705 77.9685595,19.1777804 76.5885349,19.1777804 C75.2032378,19.1777804 74.4239521,20.348705 74.4239521,22.3510107 C74.4239521,24.3693376 75.2032916,25.5312362 76.5885349,25.5312362 C77.9685954,25.5312157 78.754929,24.3612963 78.754929,22.3509902 L78.7549111,22.3509902 Z M90.5185847,26.9735782 L88.865342,26.9735782 L87.1963356,20.170379 L87.0702447,20.170379 L85.4082324,26.9735782 L83.7707354,26.9735782 L81.5448018,17.736382 L83.1612807,17.736382 L84.6078748,24.7849051 L84.7269717,24.7849051 L86.3872264,17.736382 L87.9161356,17.736382 L89.5763904,24.7849051 L89.7024814,24.7849051 L91.1420634,17.736382 L92.7357667,17.736382 L90.5185847,26.9735782 Z M94.6079425,17.736382 L96.1420883,17.736382 L96.1420883,19.2037918 L96.2611852,19.2037918 C96.675334,18.1233902 97.6430801,17.4624978 98.6710097,17.5580766 C99.466932,17.4896258 100.24688,17.838889 100.790634,18.5072518 C101.334389,19.1756146 101.582944,20.0905472 101.466119,20.9937187 L101.466119,26.9734756 L99.8724159,26.9734756 L99.8724159,21.4515035 C99.8724159,19.9670673 99.3084946,19.2288391 98.129846,19.2288391 C97.5899841,19.200077 97.0660624,19.4424335 96.6954371,19.8923701 C96.3248118,20.3423068 96.1444466,20.9549498 96.2016278,21.5696832 L96.2016278,26.9735782 L94.6079246,26.9735782 L94.6079425,17.736382 Z M104.00555,14.1304348 L105.599253,14.1304348 L105.599253,26.9735577 L104.00555,26.9735577 L104.00555,14.1304348 Z M107.814677,22.3509902 C107.676313,20.6951868 108.370482,19.0927906 109.606076,18.2157846 C110.841669,17.3387786 112.40508,17.3387786 113.640674,18.2157846 C114.876267,19.0927906 115.570436,20.6951868 115.432072,22.3509902 C115.572998,24.0085238 114.879445,25.6139419 113.642786,26.4927837 C112.406127,27.3716255 110.840622,27.3716255 109.603963,26.4927837 C108.367304,25.6139419 107.673752,24.0085238 107.814677,22.3509902 Z M113.791939,22.3509902 C113.791939,20.348705 113.005587,19.1777804 111.625563,19.1777804 C110.240265,19.1777804 109.46098,20.348705 109.46098,22.3510107 C109.46098,24.3693376 110.240319,25.5312362 111.625563,25.5312362 C113.005605,25.5312157 113.791957,24.3612963 113.791957,22.3509902 L113.791939,22.3509902 Z M117.109848,24.3612963 C117.109848,22.6985546 118.192175,21.7399883 120.113363,21.6037565 L122.300776,21.4595243 L122.300776,20.6622166 C122.300776,19.6866034 121.736854,19.1357067 120.647533,19.1357067 C119.757866,19.1357067 119.141399,19.5093236 118.964503,20.1623992 L117.421587,20.1623992 C117.58446,18.575784 118.889199,17.5581176 120.721078,17.5581176 C122.745618,17.5581176 123.887485,18.7109901 123.887485,20.6622166 L123.887485,26.9735987 L122.353321,26.9735987 L122.353321,25.6754684 L122.22723,25.6754684 C121.706167,26.6234626 120.779548,27.177512 119.801642,27.1257902 C119.116106,27.2073566 118.432397,26.953394 117.919541,26.4266867 C117.406685,25.8999795 117.112549,25.1496873 117.109848,24.3612963 Z M122.300776,23.5719889 L122.300776,22.7997284 L120.328781,22.9439605 C119.216684,23.0290926 118.712303,23.4618095 118.712303,24.2761437 C118.712303,25.1075043 119.342775,25.5913005 120.209756,25.5913005 C120.72299,25.6507285 121.235335,25.4693566 121.629505,25.0887046 C122.023674,24.7080527 122.265916,24.160715 122.300776,23.5719889 Z M125.982055,22.3509902 C125.982055,19.4321919 127.293806,17.5831444 129.334092,17.5831444 C130.364334,17.5288448 131.329251,18.1603045 131.810468,19.2037303 L131.929564,19.2037303 L131.929564,14.1304348 L133.523268,14.1304348 L133.523268,26.9735577 L131.996116,26.9735577 L131.996116,25.5141483 L131.870025,25.5141483 C131.352434,26.548917 130.375628,27.1697029 129.334109,27.1257902 C127.2798,27.1258928 125.982055,25.2768042 125.982055,22.3509902 Z M127.628357,22.3509902 C127.628357,24.310217 128.435727,25.4891625 129.786,25.4891625 C131.129225,25.4891625 131.959388,24.2932111 131.959388,22.3590111 C131.959388,20.4338371 131.120509,19.2208388 129.786,19.2208388 C128.444425,19.2208388 127.628303,20.4077846 127.628303,22.3509902 L127.628357,22.3509902 Z M140.117014,22.3509902 C139.978543,20.6952951 140.672603,19.0929395 141.908105,18.215947 C143.143607,17.3389545 144.706937,17.3389545 145.942439,18.215947 C147.177941,19.0929395 147.872,20.6952951 147.73353,22.3509902 C147.874634,24.0084645 147.181209,25.6139279 145.944611,26.4928084 C144.708014,27.3716889 143.142529,27.3716889 141.905932,26.4928084 C140.669334,25.6139279 139.975909,24.0084645 140.117014,22.3509902 Z M146.094275,22.3509902 C146.094275,20.348705 145.307924,19.1777804 143.927899,19.1777804 C142.542602,19.1777804 141.763316,20.348705 141.763316,22.3510107 C141.763316,24.3693376 142.542656,25.5312362 143.927899,25.5312362 C145.307942,25.5312157 146.094275,24.3612963 146.094275,22.3509902 Z M149.871894,17.736382 L151.406057,17.736382 L151.406057,19.2037918 L151.525154,19.2037918 C151.939303,18.1233902 152.907049,17.4624978 153.934979,17.5580766 C154.730901,17.4896258 155.510848,17.838889 156.054603,18.5072518 C156.598358,19.1756146 156.846913,20.0905472 156.730088,20.9937187 L156.730088,26.9734756 L155.136385,26.9734756 L155.136385,21.4515035 C155.136385,19.9670673 154.572464,19.2288391 153.393815,19.2288391 C152.853953,19.200077 152.330031,19.4424335 151.959406,19.8923701 C151.588781,20.3423068 151.408416,20.9549498 151.465597,21.5696832 L151.465597,26.9735782 L149.871894,26.9735782 L149.871894,17.736382 Z M165.735416,15.4366065 L165.735416,17.7784557 L167.484998,17.7784557 L167.484998,19.3139917 L165.735416,19.3139917 L165.735416,24.0638059 C165.735416,25.0313983 166.083937,25.4550892 166.877283,25.4550892 C167.080391,25.4543456 167.283294,25.4402981 167.484998,25.4130155 L167.484998,26.9315045 C167.198795,26.9900727 166.90882,27.0212317 166.618089,27.0246574 C164.845749,27.0246574 164.139955,26.3114765 164.139955,24.5305552 L164.139955,19.3139096 L162.857992,19.3139096 L162.857992,17.7783737 L164.139955,17.7783737 L164.139955,15.4366065 L165.735416,15.4366065 Z M169.661883,14.1304348 L171.24158,14.1304348 L171.24158,19.2208182 L171.367671,19.2208182 C171.801714,18.130961 172.786397,17.4692265 173.829952,17.5660974 C174.621354,17.5168384 175.390744,17.8737907 175.928555,18.5397288 C176.466367,19.2056668 176.716585,20.1112289 176.611055,21.0097605 L176.611055,26.9735782 L175.015756,26.9735782 L175.015756,21.4594833 C175.015756,19.9840527 174.414981,19.236819 173.288949,19.236819 C172.734495,19.1848036 172.188238,19.4153726 171.796216,19.8668853 C171.404194,20.3183981 171.20638,20.9448146 171.255658,21.5786682 L171.255658,26.9735372 L169.661955,26.9735372 L169.661883,14.1304348 Z M185.903679,24.479476 C185.456787,26.2218714 183.982722,27.3476526 182.404533,27.1518632 C181.327736,27.1843778 180.292875,26.6738328 179.574522,25.7556877 C178.856169,24.8375426 178.526946,23.6046179 178.674205,22.3840378 C178.530858,21.1600657 178.858846,19.9251654 179.573199,18.9992635 C180.287552,18.0733617 181.317977,17.5475669 182.397521,17.5580971 C184.644473,17.5580971 186,19.3140737 186,22.2147174 L186,22.8508281 L180.297678,22.8508281 L180.297678,22.9529866 C180.247217,23.6384332 180.451873,24.3164281 180.861314,24.8202312 C181.270756,25.3240344 181.846992,25.606899 182.448309,25.5992598 C183.22801,25.7063306 183.986996,25.2639278 184.369515,24.4794144 L185.903679,24.479476 Z M180.297642,21.5025827 L184.376473,21.5025827 C184.417098,20.8756835 184.224394,20.2583113 183.845849,19.8026067 C183.467304,19.3469021 182.938124,19.0952459 182.388715,19.1096542 C181.831864,19.1016517 181.295786,19.3512267 180.902087,19.8017652 C180.508388,20.2523038 180.290439,20.865618 180.297678,21.5025827 L180.297642,21.5025827 Z" id="Download-on-the" fill="#FFFFFF"></path>
                            <path d="M41.7272089,36.6740345 C41.7666875,33.3715123 43.3731146,30.3209865 45.9836759,28.5912137 C44.3293091,26.0447196 41.6576912,24.4880702 38.7747609,24.3908551 C35.7416833,24.0477296 32.8012467,26.346959 31.2556457,26.346959 C29.6801338,26.346959 27.3004383,24.4249224 24.7378991,24.4817466 C21.3662658,24.5991491 18.2991877,26.6151278 16.6588194,29.7920948 C13.165589,36.3104685 15.7712246,45.8902831 19.1174468,51.1592445 C20.7916325,53.7393051 22.748275,56.6212991 25.3085022,56.5190973 C27.8138384,56.4071035 28.7495329,54.7972789 31.7736878,54.7972789 C34.7697741,54.7972789 35.6476514,56.5190973 38.2598256,56.4541164 C40.948168,56.4070841 42.6419512,53.8625897 44.2573987,51.258098 C45.4602984,49.4197105 46.3859278,47.3878921 47,45.2379046 C43.8070656,43.7824169 41.7309356,40.4104441 41.7272089,36.6740345 Z M36.7932829,20.9256294 C38.2590789,19.0291372 38.9812209,16.5915178 38.8063517,14.1304348 C36.5669415,14.3839352 34.4983537,15.5374709 33.0127551,17.3611998 C31.5457947,19.1605534 30.8026359,21.5145897 30.9469626,23.9048222 C33.2164007,23.9300062 35.3711843,22.8319624 36.7932829,20.9256294 Z" id="Icon" fill="#FFFFFF"></path>
                        </g>
                    </g>
                </g>
            </g>
        </g>
    </g>
</svg>