<?xml version="1.0" encoding="UTF-8"?>
<svg width="234px" height="77px" viewBox="0 0 234 77" version="1.1" xmlns="http://www.w3.org/2000/svg" xmlns:xlink="http://www.w3.org/1999/xlink">
    <!-- Generator: Sketch 52.2 (67145) - http://www.bohemiancoding.com/sketch -->
    <title>Google Play Badge US</title>
    <desc>Created with Sketch.</desc>
    <defs>
        <linearGradient x1="91.488428%" y1="4.9481245%" x2="-38.3517333%" y2="71.9074222%" id="linearGradient-1">
            <stop stop-color="#00A0FF" offset="0%"></stop>
            <stop stop-color="#00A1FF" offset="1%"></stop>
            <stop stop-color="#00BEFF" offset="26%"></stop>
            <stop stop-color="#00D2FF" offset="51%"></stop>
            <stop stop-color="#00DFFF" offset="76%"></stop>
            <stop stop-color="#00E3FF" offset="100%"></stop>
        </linearGradient>
        <linearGradient x1="107.684729%" y1="50%" x2="-130.640394%" y2="50%" id="linearGradient-2">
            <stop stop-color="#FFE000" offset="0%"></stop>
            <stop stop-color="#FFBD00" offset="41%"></stop>
            <stop stop-color="#FFA500" offset="78%"></stop>
            <stop stop-color="#FF9C00" offset="100%"></stop>
        </linearGradient>
        <linearGradient x1="86.219293%" y1="17.8768889%" x2="-50.1497903%" y2="194.702638%" id="linearGradient-3">
            <stop stop-color="#FF3A44" offset="0%"></stop>
            <stop stop-color="#C31162" offset="100%"></stop>
        </linearGradient>
        <linearGradient x1="-18.7537448%" y1="-54.0521474%" x2="42.1210306%" y2="24.9170664%" id="linearGradient-4">
            <stop stop-color="#32A071" offset="0%"></stop>
            <stop stop-color="#2DA771" offset="7%"></stop>
            <stop stop-color="#15CF74" offset="48%"></stop>
            <stop stop-color="#06E775" offset="80%"></stop>
            <stop stop-color="#00F076" offset="100%"></stop>
        </linearGradient>
    </defs>
    <g id="Welcome" stroke="none" stroke-width="1" fill="none" fill-rule="evenodd">
        <g id="Desktop" transform="translate(-110.000000, -839.000000)" fill-rule="nonzero">
            <g id="Group-12">
                <g id="Content" transform="translate(111.000000, 301.000000)">
                    <g id="Store_Link" transform="translate(0.000000, 539.000000)">
                        <g id="Google-Play-Badge-US">
                            <path d="M10,0 L222,0 C227.522847,-1.01453063e-15 232,4.4771525 232,10 L232,65 C232,70.5228475 227.522847,75 222,75 L10,75 C4.4771525,75 6.76353751e-16,70.5228475 0,65 L0,10 C-6.76353751e-16,4.4771525 4.4771525,-2.53818305e-15 10,-3.55271368e-15 Z" id="Background-Black" stroke="#979797" fill="#000000"></path>
                            <path d="M116.864363,40.3359516 C112.8347,40.3564038 109.581595,43.892543 109.594223,48.2386256 C109.60685,52.5847082 112.880439,56.0987896 116.910141,56.0920042 C120.939844,56.0852188 124.203243,52.5601302 124.203287,48.2140263 C124.2316,46.1089561 123.466355,44.0816698 122.082828,42.5965024 C120.699301,41.111335 118.816029,40.2955336 116.864363,40.3359516 Z M116.864363,52.9964811 C115.048069,53.1334766 113.338711,52.0591079 112.553855,50.2872336 C111.769,48.5153593 112.068171,46.4061153 113.308277,44.96833 C114.548384,43.5305447 116.477372,43.0564498 118.17263,43.7727998 C119.867887,44.4891498 120.984849,46.2503455 120.989285,48.2140263 C121.045217,49.4423978 120.638723,50.643055 119.862048,51.5435362 C119.085372,52.4440174 118.004375,52.967965 116.864363,52.9964811 Z M100.863101,40.3359516 C96.83116,40.3461834 93.5694258,43.8778355 93.5757467,48.226355 C93.5820676,52.5748745 96.8540529,56.0954794 100.886004,56.0920768 C104.917954,56.0886742 108.184827,52.5625512 108.184838,48.2140263 C108.213151,46.1089561 107.447906,44.0816698 106.064379,42.5965024 C104.680852,41.111335 102.79758,40.2955336 100.845914,40.3359516 L100.863101,40.3359516 Z M100.863101,52.9964811 C99.0458589,53.1412023 97.3315167,52.0721907 96.5411303,50.3014318 C95.7507439,48.5306728 96.0452304,46.4186808 97.2835504,44.9769595 C98.5218704,43.5352382 100.451911,43.0573121 102.14931,43.7720761 C103.846709,44.48684 104.965889,46.2487731 104.970836,48.2140263 C105.026768,49.4423978 104.620274,50.643055 103.843599,51.5435362 C103.066923,52.4440174 101.985926,52.967965 100.845914,52.9964811 L100.863101,52.9964811 Z M81.8025214,42.7642523 L81.8025214,46.1008486 L89.2273819,46.1008486 C89.1109619,47.6723925 88.5052534,49.155307 87.5086642,50.3086673 C86.0065443,51.9588453 83.9277901,52.847554 81.7853342,52.7555047 C77.2290707,52.7555047 73.5354893,48.7719178 73.5354893,43.8579144 C73.5354893,38.943911 77.2290707,34.9603241 81.7853342,34.9603241 C83.8783814,34.9235082 85.8995353,35.7834478 87.4055412,37.3515515 L89.5883126,34.9973974 C87.5343068,32.7542002 84.7255763,31.5037106 81.8025214,31.5310445 C77.6414384,31.3563904 73.7252246,33.6510285 71.5965248,37.5110724 C69.4678251,41.3711164 69.4678251,46.1778826 71.5965248,50.0379265 C73.7252246,53.8979705 77.6414384,56.1926085 81.8025214,56.0179544 C84.7789366,56.1630117 87.6680593,54.9125702 89.7258101,52.5886749 C91.5264689,50.4549615 92.4878635,47.6500696 92.4070097,44.7662101 C92.4125557,44.0636493 92.3549964,43.3621607 92.2351379,42.671569 L81.8025214,42.7642523 Z M159.677621,45.3593828 C158.759962,42.447665 156.270998,40.4491234 153.421488,40.3359516 C151.521211,40.3319445 149.704151,41.1764171 148.401766,42.6688507 C147.099381,44.1612843 146.427846,46.1685502 146.546617,48.2140263 C146.504407,50.3073626 147.253293,52.3292143 148.621199,53.8150113 C149.989106,55.3008083 151.858415,56.1227955 153.799606,56.092101 C156.241661,56.1062982 158.527186,54.7972153 159.883867,52.6072115 L157.391726,50.7535469 C156.635054,52.1140295 155.270582,52.9448881 153.799606,52.9408711 C152.27612,53.0034974 150.872013,52.0551899 150.259048,50.5496437 L160.038551,46.1935318 L159.677621,45.3593828 Z M149.709058,47.9915865 C149.63868,46.8333506 150.003519,45.6933111 150.721325,44.8284767 C151.439132,43.9636424 152.449485,43.4468117 153.524611,43.3944982 C154.657882,43.3139595 155.726403,43.9703995 156.240185,45.0627964 L149.709058,47.9915865 Z M141.768582,55.6286849 L144.982584,55.6286849 L144.982584,32.4578768 L141.768582,32.4578768 L141.768582,55.6286849 Z M136.509306,42.096933 L136.388996,42.096933 C135.409262,40.9155495 134.00867,40.2411921 132.539068,40.2432683 C128.637831,40.4473043 125.571966,43.9181207 125.571966,48.1306114 C125.571966,52.3431021 128.637831,55.8139185 132.539068,56.0179544 C134.013434,56.0446912 135.423104,55.3659628 136.388996,54.1642898 L136.492119,54.1642898 L136.492119,55.2950252 C136.492119,58.3164986 134.996834,59.9291868 132.59063,59.9291868 C130.951494,59.8878083 129.498189,58.7818304 128.912574,57.1301532 L126.111064,58.3906452 C127.189871,61.2208407 129.753423,63.0616175 132.59063,63.0433434 C136.354621,63.0433434 139.465501,60.652116 139.465501,54.8316091 L139.465501,40.7993677 L136.509306,40.7993677 L136.509306,42.096933 Z M132.83125,52.9964811 C130.533131,52.7780449 128.770567,50.7021911 128.770567,48.2140263 C128.770567,45.7258615 130.533131,43.6500077 132.83125,43.4315715 C133.941747,43.4930344 134.982201,44.0354401 135.716719,44.9358139 C136.451237,45.8361876 136.817598,47.0182585 136.732739,48.2140263 C136.8275,49.4152926 136.462312,50.6060529 135.722082,51.5094485 C134.981853,52.4128441 133.931076,52.9501651 132.814063,52.9964811 L132.83125,52.9964811 Z M174.733588,32.4578768 L167.05092,32.4578768 L167.05092,55.6286849 L170.264922,55.6286849 L170.264922,46.8423145 L174.750775,46.8423145 C177.247529,47.03577 179.635326,45.7088151 180.938382,43.4037164 C182.241439,41.0986178 182.241439,38.2015735 180.938382,35.8964749 C179.635326,33.5913762 177.247529,32.2644213 174.750775,32.4578768 L174.733588,32.4578768 Z M174.733588,43.5798647 L170.247735,43.5798647 L170.247735,35.6832533 L174.802337,35.6832533 C176.838417,35.6832533 178.488986,37.4634187 178.488986,39.659364 C178.488986,41.8553093 176.838417,43.6354746 174.802337,43.6354746 L174.733588,43.5798647 Z M194.550403,40.2432683 C192.159173,40.0891156 189.911046,41.4798258 188.827073,43.7837678 L191.680144,45.0627964 C192.254894,43.9203239 193.400795,43.2514983 194.601965,43.3574249 C195.426138,43.2536097 196.254432,43.5112237 196.900798,44.0724023 C197.547164,44.6335809 197.957415,45.451278 198.0394,46.341825 L198.0394,46.5828014 C197.007125,45.9933344 195.855928,45.6877134 194.6879,45.6930424 C191.611396,45.6930424 188.500517,47.546707 188.500517,50.90184 C188.561854,52.3471587 189.162636,53.704265 190.16618,54.6644036 C191.169724,55.6245423 192.490689,56.106064 193.828542,55.9994178 C195.477186,56.127104 197.05899,55.2741032 197.953464,53.7750202 L198.056587,53.7750202 L198.056587,55.6286849 L201.150279,55.6286849 L201.150279,46.7125579 C201.150279,42.6530324 198.297208,40.2988783 194.636339,40.2988783 L194.550403,40.2432683 Z M194.155098,52.9408711 C193.10668,52.9408711 191.64577,52.3662351 191.64577,50.9759866 C191.64577,49.122322 193.467611,48.5106126 195.083206,48.5106126 C196.104196,48.4834415 197.113236,48.7523071 198.005026,49.2891518 C197.782789,51.3641719 196.17721,52.9455804 194.241034,52.9964811 L194.155098,52.9408711 Z M212.425067,40.7993677 L208.747011,50.8462301 L208.643888,50.8462301 L204.828335,40.7993677 L201.390899,40.7993677 L207.114229,54.8501457 L203.848666,62.6540739 L207.200165,62.6540739 L216,40.7993677 L212.425067,40.7993677 Z M183.533423,55.6286849 L186.747425,55.6286849 L186.747425,32.4578768 L183.533423,32.4578768 L183.533423,55.6286849 Z" id="Google-Play" fill="#FFFFFF"></path>
                            <path d="M81.3171067,19.4922834 C81.3754448,20.9040085 80.9150956,22.2808129 80.0434815,23.3014198 C79.0694974,24.4361676 77.7110217,25.0525289 76.3075142,24.9964854 C74.1548164,24.9775898 72.2219763,23.5132386 71.4026849,21.2805066 C70.5833934,19.0477746 71.0373135,16.4817752 72.5545654,14.7689543 C73.5404073,13.6401661 74.8990187,13.0196378 76.3075142,13.0548429 C77.0254273,13.0521602 77.7362431,13.2141949 78.3962596,13.5309849 C79.0107489,13.8089634 79.5577787,14.246258 79.9925365,14.8070456 L79.092508,15.8164668 C78.4053393,14.8997532 77.3737675,14.3988774 76.3075142,14.4642233 C75.2357151,14.4583266 74.2080354,14.9424369 73.4614477,15.8049234 C72.7148599,16.66741 72.3138134,17.8338185 72.3507853,19.035187 C72.3280331,20.8506018 73.2813409,22.5031 74.7671636,23.2238244 C76.2529862,23.9445488 77.9795168,23.5919533 79.143453,22.33009 C79.6659951,21.6949862 79.9673747,20.8702409 79.9925365,20.0065168 L76.3075142,20.0065168 L76.3075142,18.6352277 L81.24918,18.6352277 C81.2944754,18.918083 81.3172075,19.2049024 81.3171067,19.4922834 Z M89.0947112,14.7308629 L84.5096605,14.7308629 L84.5096605,18.3495425 L88.6871511,18.3495425 L88.6871511,19.7208316 L84.5096605,19.7208316 L84.5096605,23.3395111 L89.0947112,23.3395111 L89.0947112,24.7488916 L83.1511269,24.7488916 L83.1511269,13.3214824 L89.0947112,13.3214824 L89.0947112,14.7308629 Z M94.6646987,24.7488916 L93.3571101,24.7488916 L93.3571101,14.7308629 L90.5041897,14.7308629 L90.5041897,13.3214824 L97.5855458,13.3214824 L97.5855458,14.7308629 L94.6646987,14.7308629 L94.6646987,24.7488916 Z M102.578157,24.7488916 L102.578157,13.3214824 L103.885745,13.3214824 L103.885745,24.7488916 L102.578157,24.7488916 Z M109.693476,24.7488916 L108.385887,24.7488916 L108.385887,14.7308629 L105.532967,14.7308629 L105.532967,13.3214824 L112.529415,13.3214824 L112.529415,14.7308629 L109.693476,14.7308629 L109.693476,24.7488916 Z M125.792098,23.2633284 C123.725412,25.5682899 120.38685,25.5682899 118.320164,23.2633284 C116.316784,20.8849681 116.316784,17.1663602 118.320164,14.7879999 C119.308494,13.6714405 120.653302,13.0434783 122.056131,13.0434783 C123.45896,13.0434783 124.803768,13.6714405 125.792098,14.7879999 C127.804028,17.1625391 127.804028,20.8887893 125.792098,23.2633284 Z M119.288119,22.3110443 C120.818718,24.0205182 123.293545,24.0205182 124.824143,22.3110443 C126.327358,20.4525117 126.327358,17.6178623 124.824143,15.7593297 C123.293545,14.0498558 120.818718,14.0498558 119.288119,15.7593297 C117.784905,17.6178623 117.784905,20.4525117 119.288119,22.3110443 Z M129.137487,24.7488916 L129.137487,13.3214824 L130.733764,13.3214824 L135.692411,22.2158159 L135.692411,13.3214824 L137,13.3214824 L137,24.7488916 L135.641466,24.7488916 L130.462057,15.4355531 L130.462057,24.7488916 L129.137487,24.7488916 Z" id="GET-IT-ON" stroke="#FFFFFF" stroke-width="0.2" fill="#FFFFFF"></path>
                            <g id="Icon" transform="translate(16.000000, 13.043478)">
                                <path d="M1.62852766,1.01588629 C1.0576559,1.75166702 0.769516095,2.69359412 0.822842553,3.64966555 L0.822842553,45.2633779 C0.769516095,46.2194494 1.0576559,47.1613765 1.62852766,47.8971572 L1.75113191,48.0288462 L23.4520851,24.7387124 L23.4520851,24.1931438 L1.75113191,0.884197324 L1.62852766,1.01588629 Z" id="Shape" fill="url(#linearGradient-1)"></path>
                                <path d="M30.6331915,32.5083612 L23.4520851,24.7387124 L23.4520851,24.1931438 L30.6331915,16.4046823 L30.7908255,16.4987458 L39.3906383,21.7474916 C41.8427234,23.2336957 41.8427234,25.6793478 39.3906383,27.1843645 L30.8258553,32.4142977 L30.6331915,32.5083612 Z" id="Shape" fill="url(#linearGradient-2)"></path>
                                <path d="M30.8433702,32.3954849 L23.4520851,24.4565217 L1.62852766,47.8971572 C2.6596605,48.870757 4.18995643,48.9181711 5.27162553,48.0100334 L30.8608851,32.3954849" id="Shape" fill="url(#linearGradient-3)"></path>
                                <path d="M30.8433702,16.5175585 L5.25411064,0.903010033 C4.17244154,-0.00512760909 2.64214561,0.042286454 1.61101277,1.01588629 L23.4520851,24.4565217 L30.8433702,16.5175585 Z" id="Shape" fill="url(#linearGradient-4)"></path>
                                <path d="M30.6331915,32.2261706 L5.25411064,47.7466555 C4.21554494,48.5806915 2.78969761,48.5806915 1.75113191,47.7466555 L1.62852766,47.8783445 L1.75113191,48.0100334 C2.78774351,48.8503581 4.21749904,48.8503581 5.25411064,48.0100334 L30.8433702,32.3954849 L30.6331915,32.2261706 Z" id="Shape" fill="#000000" opacity="0.2"></path>
                                <path d="M1.62852766,47.6337793 C1.0576559,46.8979985 0.769516095,45.9560714 0.822842553,45 L0.822842553,45.2821906 C0.769516095,46.2382621 1.0576559,47.1801892 1.62852766,47.9159699 L1.75113191,47.7842809 L1.62852766,47.6337793 Z M39.3906383,26.9021739 L30.6331915,32.2261706 L30.7908255,32.3954849 L39.3906383,27.1655518 C40.3838556,26.6644061 41.0518706,25.6311867 41.1421277,24.4565217 C40.9425095,25.5191349 40.2956433,26.4223718 39.3906383,26.9021739 Z" id="Shape" fill="#000000" opacity="0.12"></path>
                                <path d="M5.25411064,1.16638796 L39.3906383,22.0108696 C40.2956433,22.4906716 40.9425095,23.3939085 41.1421277,24.4565217 C41.0518706,23.2818568 40.3838556,22.2486374 39.3906383,21.7474916 L5.25411064,0.903010033 C2.80202553,-0.58319398 0.80532766,0.658444816 0.80532766,3.66847826 L0.80532766,3.9506689 C0.85787234,0.921822742 2.81954043,-0.319816054 5.25411064,1.16638796 Z" id="Shape" fill="#FFFFFF" opacity="0.25"></path>
                            </g>
                        </g>
                    </g>
                </g>
            </g>
        </g>
    </g>
</svg>