<svg xmlns="http://www.w3.org/2000/svg" xmlns:xlink="http://www.w3.org/1999/xlink" width="196" height="28" viewBox="0 0 196 28">
    <defs>
        <path id="a" d="M0 .424h24.573V26H0z"/>
        <path id="c" d="M.393.199h24.551V26.66H.393z"/>
        <path id="e" d="M.3.199h24.55V26.66H.3z"/>
        <path id="g" d="M.23.047h23.603v24.808H.23z"/>
    </defs>
    <g fill="none" fill-rule="evenodd">
        <g transform="translate(0 2)">
            <mask id="b" fill="#fff">
                <use xlink:href="#a"/>
            </mask>
            <path fill="#FEFEFE" d="M23.33 16.51c-1.27-.812-2.977-.467-3.812.77-1.417 2.104-3.804 3.36-6.384 3.36-4.207 0-7.629-3.332-7.629-7.428 0-4.095 3.422-7.427 7.63-7.427 2.485 0 4.822 1.185 6.252 3.17.873 1.212 2.59 1.505 3.834.656a2.635 2.635 0 0 0 .673-3.733C21.435 2.463 17.414.424 13.134.424 5.892.424 0 6.161 0 13.212S5.892 26 13.134 26c4.441 0 8.549-2.16 10.988-5.779.833-1.237.48-2.899-.792-3.711" mask="url(#b)"/>
        </g>
        <path fill="#FEFEFE" d="M74.786 18.353a2.668 2.668 0 0 0-3.723.783c-1.384 2.138-3.715 3.415-6.235 3.415-4.108 0-7.45-3.388-7.45-7.55 0-4.164 3.342-7.552 7.45-7.552a7.437 7.437 0 0 1 6.107 3.223 2.666 2.666 0 0 0 3.745.667 2.748 2.748 0 0 0 .657-3.795C72.936 4.072 69.007 2 64.828 2 57.755 2 52 7.832 52 15s5.755 13 12.828 13c4.337 0 8.349-2.196 10.731-5.875a2.748 2.748 0 0 0-.773-3.772"/>
        <g transform="translate(25)">
            <mask id="d" fill="#fff">
                <use xlink:href="#c"/>
            </mask>
            <path fill="#FEFEFE" d="M12.669 21.21c-3.733 0-6.77-3.006-6.77-6.703 0-3.695 3.037-6.702 6.77-6.702 3.732 0 6.77 3.007 6.77 6.702 0 3.697-3.038 6.703-6.77 6.703zm11.47-16.36a2.707 2.707 0 0 0-.001-3.854 2.773 2.773 0 0 0-3.893 0l-2.483 2.459a12.305 12.305 0 0 0-5.093-1.1C5.899 2.355.393 7.806.393 14.507.393 21.21 5.9 26.66 12.669 26.66c6.768 0 12.275-5.451 12.275-12.153 0-2.918-1.045-5.6-2.785-7.698l1.98-1.959z" mask="url(#d)"/>
        </g>
        <g transform="translate(78)">
            <mask id="f" fill="#fff">
                <use xlink:href="#e"/>
            </mask>
            <path fill="#FEFEFE" d="M12.575 21.21c-3.733 0-6.77-3.006-6.77-6.703 0-3.695 3.037-6.702 6.77-6.702 3.733 0 6.77 3.007 6.77 6.702 0 3.697-3.037 6.703-6.77 6.703zm11.47-16.36a2.707 2.707 0 0 0 0-3.854 2.773 2.773 0 0 0-3.894 0L17.67 3.456a12.305 12.305 0 0 0-5.094-1.1C5.807 2.355.3 7.806.3 14.507.3 21.21 5.807 26.66 12.575 26.66c6.769 0 12.276-5.451 12.276-12.153 0-2.918-1.046-5.6-2.785-7.698l1.98-1.959z" mask="url(#f)"/>
        </g>
        <path fill="#FEFEFE" d="M113.067 12h-4.134c-1.62 0-2.933 1.343-2.933 3s1.313 3 2.933 3h4.134c1.62 0 2.933-1.343 2.933-3s-1.314-3-2.933-3M131.016 2a11.83 11.83 0 0 0-6.665 2.052 2.747 2.747 0 0 0-2.605-1.903c-1.517 0-2.746 1.242-2.746 2.774v19.303c0 1.532 1.23 2.774 2.746 2.774s2.745-1.242 2.745-2.774v-9.707a2.83 2.83 0 0 0 .034-.413c0-3.616 2.913-6.558 6.491-6.558 3.58 0 6.492 2.942 6.492 6.558v10.12c0 1.532 1.23 2.774 2.746 2.774 1.517 0 2.746-1.242 2.746-2.774V14.004c0-.034-.004-.068-.006-.103C142.885 7.321 137.556 2 131.016 2M167.254 2c-1.516 0-2.746 1.242-2.746 2.774v9.707c-.02.135-.033.272-.033.412 0 3.616-2.913 6.559-6.491 6.559-3.58 0-6.492-2.943-6.492-6.559V4.774c0-1.532-1.23-2.774-2.746-2.774C147.229 2 146 3.242 146 4.774v10.221c0 .035.004.069.006.103.108 6.581 5.438 11.902 11.978 11.902 2.464 0 4.758-.757 6.665-2.052a2.748 2.748 0 0 0 2.605 1.903c1.517 0 2.746-1.242 2.746-2.775V4.774C170 3.242 168.77 2 167.254 2"/>
        <g transform="translate(172 2)">
            <mask id="h" fill="#fff">
                <use xlink:href="#g"/>
            </mask>
            <path fill="#FEFEFE" d="M21.128 10.089c-1.493 0-2.704 1.232-2.704 2.753 0 3.588-2.867 6.508-6.393 6.508-3.525 0-6.393-2.92-6.393-6.508 0-.171-.017-.338-.047-.5.03-.163.047-.33.047-.5V8.808c.025 0 .05.003.076.003.2 0 .403-.023.607-.07l11.765-2.747c1.455-.34 2.365-1.817 2.031-3.298-.334-1.482-1.784-2.408-3.24-2.068L5.637 3.252v-.453c0-1.52-1.21-2.752-2.703-2.752C1.44.047.23 1.28.23 2.8v9.043c0 .17.017.337.046.5a2.837 2.837 0 0 0-.046.5c0 6.624 5.293 12.013 11.8 12.013 6.508 0 11.803-5.389 11.803-12.013 0-1.52-1.211-2.753-2.705-2.753" mask="url(#h)"/>
        </g>
    </g>
</svg>
